<?xml version="1.0" standalone="no"?>
<!DOCTYPE svg PUBLIC "-//W3C//DTD SVG 20010904//EN"
 "http://www.w3.org/TR/2001/REC-SVG-20010904/DTD/svg10.dtd">
<svg version="1.0" xmlns="http://www.w3.org/2000/svg"
 width="620.000000pt" height="620.000000pt" viewBox="0 0 620.000000 620.000000"
 preserveAspectRatio="xMidYMid meet">
<metadata>
Created by potrace 1.11, written by Peter Selinger 2001-2013
</metadata>
<g transform="translate(0.000000,620.000000) scale(0.100000,-0.100000)"
fill="#000000" stroke="none">
<path d="M1760 6166 c-199 -70 -476 -194 -610 -274 -188 -113 -384 -288 -550
-492 -25 -30 -47 -57 -50 -60 -26 -23 -160 -205 -160 -215 0 -18 15 -26 34
-19 8 3 62 65 118 137 164 212 275 330 413 442 266 216 522 343 915 457 34 10
45 18 45 33 0 31 -47 28 -155 -9z"/>
<path d="M2497 6074 c-1 -2 -22 -5 -47 -8 -25 -3 -56 -8 -70 -11 -14 -3 -41
-8 -60 -11 -19 -2 -48 -7 -65 -11 -16 -3 -43 -7 -60 -9 -16 -2 -41 -6 -55 -9
-14 -3 -38 -8 -55 -10 -68 -12 -246 -58 -330 -84 -510 -162 -884 -468 -1240
-1016 -93 -144 -224 -361 -226 -377 -3 -28 2 -38 21 -38 15 0 32 25 73 108
223 450 571 830 994 1085 90 55 293 157 311 157 5 0 22 6 38 14 61 31 298 92
434 112 19 2 46 7 60 10 43 8 103 15 165 18 97 6 155 17 170 33 18 18 19 27 2
41 -11 9 -53 13 -60 6z"/>
<path d="M2959 5886 c-2 -2 -76 -6 -164 -10 -194 -8 -231 -11 -380 -32 -377
-51 -750 -192 -1059 -398 -164 -109 -356 -286 -506 -465 -25 -29 -50 -59 -56
-65 -6 -6 -49 -63 -95 -126 -216 -293 -367 -580 -439 -836 -39 -138 -37 -174
10 -159 13 4 21 19 26 43 55 322 150 526 394 847 359 473 631 711 1023 895
164 76 401 158 534 184 15 3 48 10 73 15 25 5 65 12 90 16 25 3 52 8 60 10 8
2 38 6 65 10 28 3 66 7 85 10 142 18 335 22 495 11 100 -7 124 -10 235 -27
114 -17 154 -17 158 2 3 17 -52 32 -173 45 -33 3 -69 8 -80 10 -11 2 -78 6
-149 9 -71 4 -133 8 -136 10 -4 3 -9 3 -11 1z"/>
<path d="M2907 5674 c-1 -1 -54 -4 -117 -8 -112 -6 -179 -11 -250 -21 -19 -2
-57 -7 -85 -11 -138 -17 -366 -74 -506 -127 -179 -68 -437 -217 -556 -322 -6
-5 -37 -32 -70 -59 -64 -54 -266 -255 -326 -325 -59 -68 -198 -258 -257 -351
-135 -213 -241 -441 -320 -685 -32 -101 -83 -313 -95 -395 -3 -25 -8 -56 -10
-70 -19 -114 -12 -170 21 -170 20 0 32 29 39 95 4 33 8 67 10 75 2 8 7 40 10
70 4 30 9 58 11 61 2 4 6 24 9 45 23 151 154 533 236 683 16 30 29 61 29 68 0
7 3 13 8 13 4 0 13 14 21 32 36 81 217 359 268 414 13 12 23 27 23 33 0 5 4
11 8 13 5 2 34 34 66 71 227 269 499 478 786 605 144 63 412 138 567 157 13 2
42 6 65 10 24 4 54 9 68 10 14 2 52 6 85 10 185 20 237 22 410 19 105 -1 206
-5 225 -8 19 -3 55 -8 80 -11 227 -29 481 -95 705 -182 91 -36 331 -152 369
-179 11 -8 31 -14 43 -14 18 0 23 6 23 25 0 27 -21 43 -154 114 -182 97 -427
187 -651 237 -39 9 -241 45 -280 50 -22 3 -53 7 -70 9 -67 10 -430 25 -438 19z"/>
<path d="M2739 5466 c-2 -2 -33 -7 -69 -11 -94 -9 -104 -11 -220 -35 -139 -28
-304 -76 -395 -115 -16 -7 -59 -25 -95 -40 -66 -27 -226 -109 -290 -147 -266
-161 -408 -290 -634 -578 -48 -62 -217 -356 -232 -403 -3 -12 -12 -29 -18 -37
-15 -18 -106 -246 -147 -367 -26 -76 -84 -276 -94 -320 -2 -10 -13 -58 -24
-108 -11 -49 -22 -103 -25 -120 -3 -16 -8 -39 -10 -50 -2 -11 -7 -40 -11 -65
-4 -25 -9 -53 -11 -63 -2 -10 -8 -52 -13 -92 -6 -41 -12 -78 -13 -82 -1 -4 1
-23 5 -40 5 -24 12 -33 26 -33 27 0 37 22 46 100 4 36 9 74 10 85 2 11 7 40
11 65 4 25 8 50 10 55 1 6 5 30 8 55 21 137 141 578 191 695 7 17 30 73 50
125 125 311 329 626 536 827 104 101 128 120 269 214 352 234 763 382 1155
416 138 12 418 5 505 -12 14 -3 41 -7 60 -10 147 -20 355 -76 537 -144 308
-114 634 -306 908 -535 88 -73 320 -307 406 -411 254 -302 465 -671 609 -1060
42 -114 85 -246 82 -252 -1 -2 5 -21 13 -43 8 -22 14 -44 14 -48 0 -4 5 -28
12 -55 13 -53 39 -76 60 -51 16 20 -13 145 -82 356 -149 451 -375 848 -697
1228 -69 82 -284 298 -353 355 -33 28 -68 57 -77 66 -40 37 -233 177 -331 239
-132 83 -306 176 -431 228 -109 46 -344 128 -387 135 -15 3 -55 12 -88 20 -68
18 -205 44 -280 53 -57 7 -490 15 -496 10z"/>
<path d="M3256 5191 c-17 -27 5 -50 62 -62 31 -7 62 -14 67 -15 24 -6 173 -57
205 -70 179 -76 398 -204 549 -322 90 -70 102 -79 189 -156 71 -62 245 -239
291 -296 20 -24 45 -54 56 -65 67 -65 261 -339 367 -515 221 -370 330 -658
373 -987 26 -195 25 -720 0 -893 -67 -449 -250 -817 -559 -1125 -128 -127
-153 -149 -255 -223 -105 -75 -290 -182 -316 -182 -7 0 -15 -4 -17 -8 -4 -11
-166 -76 -277 -111 -78 -26 -232 -62 -321 -75 -163 -26 -420 -26 -620 -1 -91
12 -337 70 -395 94 -11 5 -60 23 -110 41 -113 41 -292 130 -411 203 -237 147
-362 263 -516 481 -19 26 -44 29 -58 6 -13 -21 0 -49 70 -144 8 -12 58 -64
110 -116 181 -182 471 -365 770 -485 112 -45 289 -100 354 -109 21 -4 42 -8
46 -11 4 -2 27 -7 51 -10 24 -3 51 -7 59 -10 66 -18 462 -28 580 -13 73 9 242
38 251 44 4 2 24 6 45 10 21 3 99 26 174 51 532 175 950 532 1194 1020 31 62
56 118 56 125 0 8 4 18 9 23 14 15 70 188 96 300 51 211 59 307 59 645 0 393
-7 483 -50 716 -32 172 -176 507 -326 757 -33 56 -66 111 -72 122 -21 38 -100
150 -184 263 -155 207 -362 429 -532 572 -35 30 -70 60 -78 67 -7 7 -59 46
-115 87 -155 113 -283 186 -487 280 -63 28 -284 97 -331 103 -29 3 -49 1 -53
-6z"/>
<path d="M2414 5170 c-42 -9 -54 -18 -54 -39 0 -23 27 -31 77 -22 227 41 844
-104 1195 -280 240 -121 480 -299 709 -528 113 -114 152 -155 229 -247 109
-128 254 -348 354 -538 81 -152 201 -458 220 -557 2 -13 13 -60 24 -104 21
-84 39 -169 47 -220 2 -16 6 -41 9 -55 7 -32 18 -143 20 -197 2 -52 27 -84 54
-67 25 17 21 197 -8 324 -12 52 -23 105 -26 117 -14 72 -83 287 -126 398 -139
353 -351 695 -638 1029 -32 38 -294 301 -340 342 -228 202 -516 379 -765 470
-149 54 -341 114 -413 129 -9 2 -37 8 -62 13 -25 6 -65 14 -90 18 -25 3 -56 9
-70 11 -44 8 -314 11 -346 3z"/>
<path d="M2030 5031 c-230 -86 -402 -200 -590 -390 -63 -64 -137 -145 -163
-181 -27 -36 -54 -72 -60 -80 -11 -13 -118 -183 -154 -245 -61 -103 -167 -341
-223 -503 -57 -163 -131 -449 -146 -561 -3 -19 -6 -37 -9 -41 -2 -3 -7 -38
-10 -76 -4 -38 -8 -71 -10 -74 -2 -3 -6 -34 -10 -70 -4 -36 -9 -81 -11 -100
-9 -75 -12 -420 -4 -455 11 -51 23 -61 57 -49 28 9 28 10 24 89 -14 290 4 573
54 835 38 198 117 480 170 605 7 17 25 62 40 100 116 289 313 594 509 791 183
182 351 291 571 370 53 19 90 37 90 45 0 23 -47 20 -125 -10z"/>
<path d="M2468 4915 c-2 -1 -33 -5 -70 -9 -130 -12 -306 -61 -433 -121 -328
-155 -623 -475 -785 -853 -118 -276 -227 -698 -275 -1072 -26 -197 -25 -630 0
-755 2 -11 7 -42 10 -70 18 -155 103 -481 132 -510 16 -17 24 -18 47 -9 23 9
20 30 -19 127 -38 95 -80 250 -90 336 -4 30 -9 63 -11 75 -7 36 -17 247 -17
346 0 130 13 348 26 450 4 25 11 83 17 130 5 47 12 96 15 110 3 13 7 42 11 65
3 22 12 72 21 110 8 39 17 84 20 100 3 17 16 73 30 125 13 52 26 103 28 112
15 70 97 285 146 388 58 120 151 271 218 355 103 128 244 249 371 317 36 20
91 49 122 66 83 45 218 88 343 111 89 16 142 19 280 16 94 -1 181 -6 195 -9
14 -3 39 -8 55 -10 82 -12 321 -80 400 -115 112 -48 295 -143 372 -191 52 -33
99 -60 103 -60 5 0 10 -3 12 -8 2 -4 35 -30 73 -57 67 -47 93 -67 119 -90 6
-6 25 -21 41 -33 47 -36 198 -178 274 -256 314 -324 548 -715 677 -1131 24
-75 28 -90 38 -140 2 -11 9 -38 14 -60 6 -22 14 -62 18 -90 3 -27 8 -59 10
-70 8 -37 18 -210 18 -300 -1 -273 -45 -477 -150 -690 -102 -207 -257 -386
-574 -665 -206 -182 -428 -277 -760 -325 -49 -8 -307 -8 -355 -1 -16 2 -50 7
-75 11 -204 30 -404 102 -576 205 -78 48 -114 56 -114 25 0 -17 24 -36 120
-92 158 -92 322 -158 465 -188 11 -3 31 -7 45 -10 301 -64 640 -20 945 124
500 236 906 683 1039 1142 13 48 28 106 31 130 3 24 9 58 11 74 13 74 19 316
10 435 -5 71 -33 261 -42 292 -3 9 -7 26 -9 39 -11 57 -62 214 -100 309 -100
250 -247 502 -439 755 -169 223 -429 485 -648 654 -156 119 -425 278 -558 329
-46 18 -211 73 -230 77 -8 2 -49 10 -91 19 -41 8 -98 18 -125 22 -49 6 -371
14 -376 9z"/>
<path d="M4366 4817 c-26 -19 -12 -40 82 -119 174 -145 366 -334 469 -462 78
-97 369 -532 445 -666 216 -380 330 -725 375 -1127 10 -87 10 -409 0 -488 -18
-141 -28 -208 -32 -215 -2 -3 -6 -24 -9 -46 -10 -66 -14 -83 -42 -178 -127
-436 -393 -816 -779 -1116 -61 -47 -109 -91 -109 -97 1 -7 2 -17 3 -23 7 -55
218 93 390 274 102 106 105 109 146 167 22 30 42 56 45 59 15 12 141 222 178
296 99 197 187 448 227 648 31 158 33 170 50 341 7 68 7 299 1 358 -4 26 -8
66 -11 90 -29 253 -134 576 -305 934 -82 172 -163 308 -328 553 -201 299 -335
451 -602 684 -166 144 -173 148 -194 133z"/>
<path d="M2578 4705 c-2 -2 -38 -5 -80 -9 -43 -4 -83 -8 -90 -11 -7 -2 -26 -6
-43 -9 -97 -16 -259 -67 -366 -115 -47 -21 -66 -50 -46 -70 16 -16 22 -15 111
28 176 86 333 120 551 121 257 2 459 -47 720 -175 430 -211 783 -571 1014
-1033 169 -338 242 -641 236 -977 -2 -82 -6 -163 -9 -180 -4 -16 -14 -66 -22
-110 -9 -44 -18 -87 -19 -95 -2 -8 -4 -15 -4 -15 -2 0 -50 -135 -53 -149 -2
-5 -24 -52 -50 -104 -72 -142 -149 -244 -287 -382 -160 -159 -289 -247 -447
-303 -63 -23 -88 -29 -174 -43 -36 -5 -211 -6 -236 0 -12 2 -37 7 -56 10 -65
10 -168 40 -269 79 -56 21 -68 23 -84 11 -15 -11 -16 -18 -8 -37 16 -35 163
-81 323 -101 55 -8 259 -8 320 -1 127 15 271 61 352 112 21 12 40 23 43 23 3
0 51 33 107 73 113 80 306 264 358 342 19 28 36 52 39 55 3 3 12 15 19 28 103
183 154 313 193 485 28 127 34 189 34 357 0 159 -4 192 -40 380 -9 48 -94 317
-116 365 -4 11 -28 67 -53 125 -131 311 -294 535 -570 785 -12 12 -133 110
-156 128 -125 96 -313 203 -512 291 -76 34 -249 86 -335 101 -74 12 -287 27
-295 20z"/>
<path d="M2469 4456 c-2 -2 -24 -6 -49 -9 -166 -20 -350 -94 -486 -194 -230
-171 -363 -428 -429 -828 -20 -121 -28 -667 -12 -815 4 -36 9 -87 12 -115 3
-27 7 -63 10 -80 2 -16 7 -52 10 -80 4 -27 9 -58 11 -67 3 -10 7 -30 10 -45 2
-16 7 -41 11 -58 4 -16 7 -32 8 -35 10 -52 22 -99 24 -102 2 -2 4 -13 7 -25
17 -91 121 -368 186 -496 23 -45 42 -85 42 -89 1 -4 7 -13 14 -20 6 -6 12 -15
12 -19 0 -16 103 -162 162 -231 117 -135 234 -252 246 -244 27 17 6 51 -99
163 -178 189 -251 294 -339 491 -68 152 -156 437 -195 635 -3 15 -7 38 -10 52
-3 14 -7 36 -9 50 -3 14 -7 33 -10 43 -2 9 -7 37 -10 62 -3 25 -8 54 -10 66
-4 18 -11 68 -21 154 -28 222 -27 634 1 795 6 33 7 42 18 100 67 349 245 621
496 758 318 174 717 176 1102 6 97 -43 242 -123 272 -151 11 -10 23 -18 27
-18 21 0 202 -155 294 -250 148 -155 222 -260 318 -450 91 -181 172 -426 193
-585 3 -27 8 -52 9 -55 7 -12 19 -192 19 -290 0 -98 -10 -225 -19 -260 -2 -8
-7 -28 -9 -45 -42 -239 -204 -502 -382 -620 -105 -70 -281 -141 -399 -161 -16
-3 -46 -9 -65 -13 -40 -8 -222 -6 -260 3 -14 3 -38 9 -54 11 -16 3 -54 15 -85
27 -72 27 -114 29 -119 5 -3 -13 10 -23 50 -41 173 -75 407 -87 623 -31 66 17
144 44 177 61 15 8 31 15 35 15 42 5 196 110 262 178 139 144 267 423 297 646
3 28 8 59 11 70 10 48 2 308 -13 395 -3 19 -7 44 -8 55 -39 258 -176 630 -313
844 -86 135 -207 272 -353 402 -41 36 -201 152 -255 185 -171 105 -356 182
-525 218 -41 9 -86 19 -100 22 -28 7 -325 16 -331 10z"/>
<path d="M1664 4312 c-177 -177 -219 -247 -335 -567 -67 -183 -114 -332 -133
-425 -3 -14 -10 -47 -16 -75 -41 -193 -61 -407 -62 -660 -1 -142 7 -334 16
-400 3 -17 7 -57 10 -90 6 -70 15 -138 22 -180 3 -16 7 -43 10 -60 29 -175 79
-354 136 -492 29 -72 49 -90 82 -77 30 12 28 47 -7 114 -56 105 -121 309 -143
449 -3 18 -7 41 -9 50 -1 9 -6 41 -10 71 -3 30 -8 66 -10 80 -13 92 -19 240
-20 470 0 305 7 397 45 650 11 69 21 134 24 145 39 181 90 365 121 440 84 201
109 256 121 266 8 6 14 18 14 25 0 8 4 14 9 14 5 0 12 9 16 19 3 10 64 78 135
150 72 72 130 135 130 139 0 13 -15 28 -32 35 -13 4 -43 -20 -114 -91z"/>
<path d="M2738 4255 c-2 -1 -29 -5 -62 -9 -221 -23 -459 -171 -594 -369 -75
-109 -160 -312 -176 -421 -4 -21 -8 -41 -10 -45 -9 -14 -19 -140 -20 -250 -2
-115 13 -276 34 -366 7 -27 14 -63 17 -80 10 -63 95 -298 146 -407 105 -222
193 -345 382 -533 241 -240 306 -287 313 -224 3 28 1 30 -159 157 -136 109
-300 301 -388 454 -97 169 -197 443 -236 643 -5 22 -10 47 -11 55 -19 95 -26
438 -11 525 24 144 65 272 123 388 134 268 375 422 684 436 34 2 58 17 45 30
-10 9 -70 22 -77 16z"/>
<path d="M2765 4084 c-260 -58 -445 -221 -543 -479 -66 -173 -84 -445 -46
-705 2 -19 6 -46 8 -60 19 -131 90 -353 154 -484 38 -79 108 -192 136 -222 6
-6 29 -33 51 -60 170 -207 451 -413 650 -477 240 -77 532 -5 718 179 92 90
175 270 202 434 3 19 8 42 10 50 20 77 26 367 9 488 -16 115 -28 165 -71 297
-70 216 -163 425 -250 559 -142 220 -456 432 -713 481 -80 15 -245 15 -315 -1z
m258 -39 c181 -17 404 -148 645 -380 176 -168 293 -410 362 -743 44 -217 52
-332 37 -524 -7 -78 -13 -117 -31 -207 -12 -55 -50 -160 -80 -216 -74 -143
-270 -290 -426 -322 -293 -59 -513 26 -803 311 -145 142 -233 240 -271 300
-74 115 -202 469 -222 615 -2 18 -6 36 -8 40 -4 6 -15 83 -22 151 -5 49 -5
241 0 265 2 11 7 45 11 75 21 157 120 348 232 451 81 74 190 136 288 164 59
18 188 35 215 29 8 -2 41 -6 73 -9z"/>
<path d="M2858 3895 c-2 -2 -23 -5 -47 -9 -63 -8 -181 -69 -229 -117 -88 -87
-152 -241 -169 -404 -11 -112 -4 -341 13 -430 2 -11 6 -40 9 -65 3 -25 8 -53
11 -63 3 -11 7 -29 9 -40 2 -12 13 -53 23 -92 71 -250 182 -448 338 -603 106
-104 197 -163 316 -204 81 -28 108 -32 208 -34 132 -3 214 17 307 75 101 62
202 202 246 341 42 128 52 204 52 375 -1 199 -16 292 -78 460 -128 353 -331
601 -589 719 -76 35 -197 72 -264 81 -48 7 -152 13 -156 10z m219 -69 c93 -19
202 -66 277 -120 175 -125 367 -370 435 -556 90 -246 134 -533 109 -711 -19
-141 -43 -216 -98 -310 -149 -252 -501 -324 -765 -156 -60 38 -165 126 -218
182 -219 230 -369 676 -359 1070 3 140 21 227 71 346 48 115 91 166 179 212
118 62 220 74 369 43z"/>
<path d="M2955 3673 c-93 -15 -192 -57 -238 -101 -47 -45 -77 -125 -92 -247
-6 -54 -7 -233 -1 -278 2 -15 7 -55 11 -90 37 -328 279 -730 503 -838 191 -92
419 -12 517 181 24 46 59 157 71 220 11 59 13 282 3 345 -20 123 -60 270 -98
351 -67 142 -112 191 -276 299 -199 131 -304 173 -400 158z m155 -79 c68 -19
201 -91 272 -146 151 -117 207 -221 263 -493 34 -163 38 -296 14 -420 -39
-195 -84 -283 -175 -343 -92 -62 -220 -74 -314 -30 -84 39 -222 169 -279 263
-44 72 -145 332 -166 425 -2 8 -8 36 -14 63 -48 206 -40 441 18 554 22 44 89
108 129 125 71 28 157 29 252 2z"/>
<path d="M2956 3406 c-105 -39 -158 -151 -151 -320 8 -199 83 -389 234 -591
104 -138 202 -193 326 -182 163 15 230 128 220 372 -7 171 -57 344 -137 468
-40 62 -194 197 -265 231 -67 34 -169 43 -227 22z m199 -74 c102 -52 230 -169
273 -249 100 -189 126 -508 51 -630 -28 -45 -73 -67 -139 -67 -71 0 -121 26
-193 100 -132 133 -230 323 -262 504 -13 77 -17 227 -6 267 12 43 50 76 109
92 45 13 125 5 167 -17z"/>
<path d="M3054 3189 c-68 -19 -85 -79 -40 -145 14 -20 62 -76 108 -123 143
-148 232 -271 212 -291 -17 -17 -95 32 -158 98 -33 36 -73 78 -88 94 -33 35
-56 36 -64 3 -8 -30 23 -70 133 -176 70 -67 131 -108 173 -116 34 -6 69 19 76
54 14 77 -30 156 -167 298 -48 50 -101 108 -118 130 -17 22 -38 49 -46 60 -25
33 -19 47 19 41 82 -13 146 -64 228 -183 50 -72 73 -88 84 -58 11 27 -16 78
-86 169 -88 114 -185 166 -266 145z"/>
<path d="M2025 4080 c-76 -30 -280 -419 -311 -593 -3 -17 -6 -33 -8 -36 -2 -3
-7 -31 -10 -61 -4 -30 -10 -80 -14 -110 -14 -103 -4 -376 18 -475 5 -22 11
-56 14 -75 4 -28 26 -123 50 -215 18 -70 75 -244 95 -290 5 -11 17 -38 26 -60
64 -153 188 -353 319 -515 140 -172 434 -440 484 -440 36 0 39 28 6 54 -16 13
-63 51 -104 84 -79 63 -249 226 -315 303 -22 25 -53 60 -68 78 -40 45 -177
247 -177 259 0 6 -4 12 -8 14 -13 5 -106 195 -147 298 -34 88 -71 197 -81 241
-2 11 -7 29 -10 42 -17 68 -44 237 -49 304 -12 144 -7 331 11 417 2 12 6 35 9
52 5 43 32 146 57 224 36 112 98 223 195 352 24 32 50 73 58 92 13 30 13 35
-3 49 -11 10 -24 12 -37 7z"/>
<path d="M4796 2703 c-5 -17 -4 -37 9 -125 8 -50 8 -253 1 -323 -30 -294 -130
-568 -302 -827 -154 -232 -407 -425 -689 -528 -33 -12 -67 -23 -75 -25 -8 -2
-45 -11 -82 -19 -37 -9 -93 -19 -125 -23 -78 -10 -275 -9 -343 1 -30 4 -64 9
-75 11 -11 2 -58 13 -105 24 -188 47 -356 123 -504 229 -110 78 -277 248 -356
361 -78 113 -88 123 -109 119 -32 -6 -23 -46 29 -124 54 -79 67 -96 135 -173
224 -256 549 -433 894 -487 20 -3 38 -7 41 -9 9 -5 163 -18 220 -18 64 0 212
11 232 18 7 2 29 6 48 9 19 3 73 17 120 31 47 14 92 27 101 29 9 3 25 9 35 14
11 5 66 33 124 61 380 188 664 535 796 976 26 86 30 104 49 213 18 111 24 319
11 437 -16 149 -21 165 -51 165 -14 0 -26 -7 -29 -17z"/>
<path d="M1325 2419 c-4 -6 -4 -36 1 -67 4 -31 8 -68 10 -82 2 -14 5 -38 9
-55 3 -16 8 -46 11 -65 90 -521 267 -967 488 -1224 242 -283 605 -511 972
-611 95 -26 124 -25 124 5 0 25 -16 35 -85 54 -217 60 -449 177 -654 328 -119
89 -146 112 -260 227 -156 158 -255 316 -353 561 -72 180 -149 477 -173 665
-4 28 -8 61 -10 74 -3 14 -7 54 -11 90 -3 35 -10 75 -15 88 -9 24 -43 32 -54
12z"/>
<path d="M5226 1993 c-3 -10 -15 -65 -26 -123 -23 -121 -65 -270 -108 -387
-29 -76 -126 -272 -140 -283 -4 -3 -13 -16 -21 -30 -51 -90 -259 -323 -391
-435 -212 -182 -449 -303 -729 -375 -213 -54 -514 -69 -690 -35 -31 6 -61 -11
-61 -35 0 -35 115 -55 325 -54 164 1 230 7 390 38 105 20 275 80 395 139 102
49 275 159 335 212 17 15 52 45 80 68 67 57 208 199 268 272 107 128 212 314
276 488 33 89 96 306 105 359 3 18 8 44 11 58 25 115 25 140 0 140 -8 0 -16
-8 -19 -17z"/>
</g>
</svg>
