<?xml version="1.0" encoding="UTF-8"?>
<!DOCTYPE svg PUBLIC "-//W3C//DTD SVG 1.1//EN" "http://www.w3.org/Graphics/SVG/1.1/DTD/svg11.dtd">
<!-- Creator: CorelDRAW X8 -->
<svg xmlns="http://www.w3.org/2000/svg" xml:space="preserve" width="103.958mm" height="102.356mm" version="1.1" style="shape-rendering:geometricPrecision; text-rendering:geometricPrecision; image-rendering:optimizeQuality; fill-rule:evenodd; clip-rule:evenodd"
viewBox="0 0 10396 10236"
 xmlns:xlink="http://www.w3.org/1999/xlink">
 <defs>
  <style type="text/css">
   <![CDATA[
    .fil0 {fill:#ffffff;fill-rule:nonzero}
   ]]>
  </style>
 </defs>
 <g id="Слой_x0020_1">
  <metadata id="CorelCorpID_0Corel-Layer"/>
  <g id="_716798672">
   <path class="fil0" d="M5783 6364c-64,44 -155,67 -231,73 -93,11 -204,-47 -153,-82 25,-17 53,-14 82,-11 67,5 99,1 131,-4 27,-5 67,-31 170,-69 73,-14 73,57 1,93z"/>
   <path class="fil0" d="M5245 4515c-119,-44 -195,-22 -307,16 -132,61 -102,114 5,79 100,-32 224,-58 292,-9 130,92 173,-27 10,-86z"/>
   <path class="fil0" d="M4905 6316c67,78 117,129 161,169 96,86 194,174 312,206 185,52 396,-2 554,-179 96,-108 151,-30 108,26 -45,58 -99,108 -163,146 -38,23 -81,41 -126,54 -352,126 -463,63 -734,-181 -52,-47 -105,-103 -184,-196 -51,-79 9,-140 72,-45z"/>
   <path class="fil0" d="M5417 4391c-170,-107 -354,-154 -527,-125 -118,20 -233,90 -293,195 -63,87 -151,63 -115,-26 64,-124 138,-178 277,-232 37,-15 77,-26 120,-33 211,-36 407,32 604,156 152,96 280,190 396,334 18,16 1,60 -35,38 -235,-225 -238,-187 -427,-307z"/>
   <path class="fil0" d="M4542 6434c202,341 673,718 1048,691 227,-17 474,-115 607,-236 83,-75 130,-201 179,-302 35,-135 162,-92 107,30 -58,129 -142,249 -247,344 -155,140 -344,220 -604,240 -421,31 -850,-294 -1105,-597 -33,-39 -64,-78 -94,-119 -47,-73 37,-168 109,-51z"/>
   <path class="fil0" d="M6014 4500c-222,-288 -429,-421 -685,-531 -248,-105 -495,-113 -686,-38 -92,36 -210,110 -291,194 -72,75 -85,146 -114,231 -24,108 -131,105 -105,-8 40,-130 66,-180 121,-257 95,-132 215,-186 349,-239 100,-39 207,-51 322,-46 147,6 299,28 457,95 271,116 465,274 701,523 52,66 19,132 -69,76z"/>
   <path class="fil0" d="M4097 6448c59,97 63,90 133,180 305,387 709,741 1053,846 355,108 721,65 980,-123 158,-115 312,-287 395,-512 42,-96 143,-85 85,61 -93,231 -236,404 -405,528 -296,215 -682,264 -1079,142 -369,-113 -723,-396 -1046,-806 -85,-108 -158,-151 -227,-268 -46,-78 55,-156 111,-48z"/>
   <path class="fil0" d="M6200 4257c-80,-103 -96,-109 -195,-198 -238,-213 -536,-413 -822,-488 -351,-92 -893,74 -1139,349 -188,212 -307,472 -333,730 -5,128 -85,110 -75,9 27,-290 136,-567 349,-805 97,-109 237,-184 346,-247 287,-164 572,-190 885,-108 307,81 607,257 861,484 102,91 134,114 218,218 59,83 -26,128 -95,56z"/>
   <path class="fil0" d="M3221 4523c29,-197 78,-302 157,-473 74,-160 195,-324 329,-456 246,-242 556,-370 950,-386 38,-2 65,-13 67,26 1,38 -31,43 -69,44 -138,6 -278,35 -398,74 -190,61 -342,185 -478,318 -230,226 -397,502 -445,875 -6,67 -114,97 -113,-22z"/>
   <path class="fil0" d="M4625 7615c29,25 35,60 10,89 -31,27 -92,-10 -121,-35 -285,-250 -510,-489 -716,-764 -42,-56 -81,-84 -120,-143 -80,-107 25,-153 65,-83 190,295 412,575 697,811 53,44 131,87 185,125z"/>
   <path class="fil0" d="M2848 7004c20,60 53,217 75,276 76,201 167,440 265,612 110,192 237,360 371,499 83,84 140,143 228,233 27,27 54,71 26,98 -27,27 -66,-10 -93,-37 -250,-255 -468,-460 -648,-790 -89,-163 -171,-376 -243,-569 -23,-60 -67,-213 -87,-275 -24,-117 83,-114 106,-47z"/>
   <path class="fil0" d="M6485 4085c-44,-59 -57,-72 -105,-128 -430,-501 -1009,-872 -1635,-1003 -455,-51 -883,23 -1202,185 -315,160 -567,434 -730,800 -71,158 -90,239 -118,392 -7,39 -21,101 -26,141 -15,92 -121,99 -107,-9 33,-260 50,-323 166,-585 177,-395 438,-646 781,-821 356,-180 844,-242 1236,-178 659,137 1272,508 1722,1032 51,59 67,76 114,139 33,60 -23,113 -96,35z"/>
   <path class="fil0" d="M4926 7923c-36,-15 -62,-40 -46,-75 16,-35 56,-21 91,-6 189,83 370,123 544,132 173,9 341,-41 505,-94 347,-113 657,-303 842,-574 51,-74 80,-168 117,-251 39,-105 136,-49 106,25 -43,101 -95,213 -156,303 -202,295 -502,464 -879,586 -423,138 -725,130 -1124,-46z"/>
   <path class="fil0" d="M633 2787c-19,33 -39,47 -73,28 -33,-19 -18,-54 1,-88 121,-213 206,-395 332,-586 344,-524 733,-931 1139,-1226 584,-436 1248,-561 2109,-698 77,-21 156,-25 163,13 8,37 -30,75 -77,82 -895,71 -1512,255 -2130,695 -169,120 -328,277 -496,450 -182,187 -450,422 -644,719 -133,205 -222,405 -324,611z"/>
   <path class="fil0" d="M812 1772c-24,30 -51,43 -81,19 -30,-23 -9,-51 15,-81 165,-208 324,-426 503,-613 181,-189 371,-368 603,-527 241,-166 350,-180 643,-321 166,-80 350,-148 522,-210 103,-37 207,-59 221,-12 7,30 -16,51 -53,60 -95,22 -225,51 -330,90 -296,109 -703,288 -969,471 -222,153 -402,330 -577,513 -122,128 -274,298 -385,441 -49,64 -63,107 -112,170z"/>
   <path class="fil0" d="M558 3911c-6,31 -32,60 -62,56 -72,-10 -33,-112 -26,-149 71,-376 308,-900 588,-1297 347,-491 776,-948 1159,-1216 501,-350 1073,-571 1685,-692 611,-121 1187,-60 1896,-15 38,7 71,11 64,48 -7,38 -26,35 -63,28 -628,-88 -1301,-102 -1896,16 -593,118 -1158,366 -1643,705 -350,245 -749,680 -1090,1159 -315,401 -547,827 -612,1357z"/>
   <path class="fil0" d="M697 4357c88,-513 248,-892 514,-1353 333,-574 768,-1129 1295,-1502 319,-227 655,-340 985,-426 354,-93 702,-152 1059,-189l58 -6c366,-27 904,-16 1496,111 437,93 878,251 1329,500 34,18 73,58 54,91 -19,34 -63,19 -96,1 -361,-199 -780,-372 -1207,-476 -503,-122 -1020,-156 -1503,-137 -769,30 -1549,257 -2094,644 -511,363 -951,854 -1274,1411 -111,192 -259,434 -371,700 -102,241 -128,422 -147,632 -17,193 -123,141 -98,-1z"/>
   <path class="fil0" d="M4901 9635c38,8 67,25 60,62 -8,38 -45,62 -83,54 -396,-96 -809,-286 -1106,-489 -462,-316 -744,-639 -858,-814 -180,-275 -319,-573 -423,-882 -56,-166 -66,-337 -103,-508 -13,-101 84,-103 105,-2 35,157 63,361 115,513 101,299 229,605 401,870 109,166 414,484 858,788 284,194 651,329 1034,408z"/>
   <path class="fil0" d="M1099 4225c119,-366 172,-597 339,-925 286,-561 667,-1064 1162,-1390 431,-283 866,-481 1317,-595 186,-46 372,-79 558,-99 809,-88 1626,98 2363,436 720,300 1784,1218 2227,1891 76,116 178,278 245,400 35,66 -67,156 -132,49 -28,-49 -46,-102 -74,-150 -518,-884 -1412,-1702 -2315,-2116 -716,-329 -1516,-482 -2303,-395 -216,24 -474,61 -712,138 -410,134 -803,351 -1109,552 -490,322 -951,875 -1197,1405 -82,176 -217,628 -251,812 -25,131 -158,111 -118,-13z"/>
   <path class="fil0" d="M1527 3927c73,-200 142,-287 240,-473 396,-752 999,-1332 1767,-1627 37,-11 75,10 86,47 11,37 -38,50 -75,60 -746,218 -1316,830 -1696,1552 -91,173 -134,275 -203,460 -24,92 -146,132 -119,-19z"/>
   <path class="fil0" d="M1311 6747c7,38 16,71 -21,78 -38,7 -74,-18 -81,-56 -15,-83 -27,-168 -36,-255 -7,-91 92,-92 101,-9 5,76 -2,152 37,242z"/>
   <path class="fil0" d="M2918 4435c25,-172 54,-184 115,-356 42,-123 65,-158 110,-242 61,-114 145,-237 239,-331 26,-28 70,-29 98,-3 28,26 0,55 -26,83 -32,34 -114,106 -157,168 -85,121 -147,259 -176,340 -60,171 -83,197 -106,367 -18,80 -109,54 -97,-26z"/>
   <path class="fil0" d="M4506 8130c27,18 55,54 37,79 -34,49 -102,-5 -133,-27 -324,-222 -565,-499 -793,-805 -125,-167 -224,-289 -325,-481 -38,-73 29,-162 90,-8 177,324 396,620 663,877 94,90 189,179 291,252 58,42 110,71 170,113z"/>
   <path class="fil0" d="M2259 4021c76,-201 133,-342 238,-517 73,-122 161,-207 255,-309 60,-65 125,-150 187,-210 27,-27 66,-48 93,-21 27,27 27,71 -1,98 -73,77 -170,141 -246,225 -78,88 -154,179 -217,279 -100,160 -127,308 -199,493 -60,132 -169,89 -110,-38z"/>
   <path class="fil0" d="M2450 8153c18,35 22,67 -12,84 -34,18 -76,4 -93,-30 -131,-259 -207,-518 -272,-833 -54,-263 -130,-526 -117,-795 -2,-91 97,-114 96,-2 15,490 146,1074 398,1576z"/>
   <path class="fil0" d="M7581 7012c-106,327 -215,514 -508,840 -59,59 -207,190 -274,248 -379,340 -693,399 -1029,422 -335,22 -646,-22 -928,-134 -36,-14 -60,-40 -46,-76 14,-36 45,-35 80,-21 266,106 545,177 854,156 309,-21 633,-104 979,-396 64,-54 181,-145 237,-201 266,-266 440,-564 542,-862 36,-142 130,-103 93,24z"/>
   <path class="fil0" d="M3384 2791c-35,16 -82,39 -98,5 -16,-35 25,-75 60,-91 534,-242 1064,-300 1604,-177 398,91 757,285 1091,515 287,198 559,418 783,684 57,67 113,116 165,186 55,93 -64,125 -98,59 -111,-147 -292,-355 -413,-476 -154,-140 -322,-267 -480,-377 -356,-248 -709,-416 -1068,-498 -509,-116 -1041,-59 -1546,170z"/>
   <path class="fil0" d="M8401 6643c1,36 2,73 3,109 3,311 -82,590 -174,863 -141,366 -274,532 -543,814 -270,285 -606,562 -950,726 -449,215 -892,303 -1338,271 -449,-32 -908,-184 -1293,-459 -31,-22 -51,-55 -29,-86 22,-31 62,-17 93,5 364,259 794,390 1216,420 424,30 907,-17 1333,-221 329,-157 656,-510 915,-783 239,-251 431,-496 536,-806 88,-302 117,-412 113,-730 0,-37 6,-94 4,-131 -5,-128 108,-135 114,8z"/>
   <path class="fil0" d="M1922 3913c93,-291 226,-482 375,-712 168,-261 344,-501 642,-722 204,-152 448,-236 670,-308 712,-229 1466,-82 2186,295 471,247 915,588 1296,969 345,346 438,519 778,1032 65,113 -56,153 -91,55 -226,-467 -458,-710 -765,-1027 -366,-379 -816,-680 -1270,-918 -689,-360 -1433,-532 -2106,-316 -208,67 -464,165 -656,307 -409,304 -824,865 -981,1354 -27,91 -97,78 -78,-9z"/>
   <path class="fil0" d="M1903 7644c13,36 -6,76 -42,88 -37,13 -76,-6 -89,-42 -76,-214 -112,-395 -149,-594 -33,-174 -31,-317 -38,-484 1,-101 98,-104 100,-15 3,68 -11,126 -4,196 22,211 66,451 137,667 24,73 57,104 85,184z"/>
   <path class="fil0" d="M3437 7757c-21,-32 -52,-109 -20,-130 32,-22 77,33 98,65 247,367 432,528 795,788 321,230 683,361 1036,404 346,42 771,-32 1128,-189 205,-90 423,-219 576,-339 348,-274 590,-615 745,-1027 93,-246 118,-457 124,-728 -11,-138 121,-158 116,11 -2,91 -10,120 -22,209 -83,654 -400,1227 -927,1642 -244,193 -532,348 -841,442l-5 1c-287,87 -587,122 -894,84 -379,-46 -768,-184 -1106,-426 -377,-270 -548,-427 -803,-807z"/>
   <path class="fil0" d="M4052 1799c-38,8 -79,11 -86,-27 -8,-38 17,-60 55,-68 227,-44 490,-15 758,33 356,64 726,177 980,280 735,299 1495,942 2068,1710 196,264 342,470 480,754 59,116 -45,151 -95,42 -134,-276 -275,-483 -467,-740 -213,-285 -448,-562 -706,-804 -418,-393 -808,-670 -1250,-850 -217,-88 -658,-221 -1001,-293 -277,-57 -550,-73 -736,-37z"/>
   <path class="fil0" d="M9124 6590c9,157 8,314 -5,470 -49,615 -284,1243 -703,1839 -534,710 -1449,1180 -2328,1302 -356,49 -705,45 -1050,-10 -534,-85 -1056,-293 -1568,-615 -89,-56 -256,-170 -440,-345 -119,-113 -262,-258 -366,-413 -21,-32 -23,-72 9,-94 32,-21 68,8 89,40 98,145 218,277 330,383 175,166 338,282 422,335 478,300 992,526 1513,612 368,61 741,38 1103,-12 802,-111 1635,-564 2256,-1329 403,-574 598,-1114 645,-1704 12,-145 19,-295 12,-448 -4,-110 75,-101 81,-11z"/>
   <path class="fil0" d="M5183 1615c-37,-7 -70,-26 -63,-64 7,-38 46,-37 84,-30 346,66 896,294 1194,461 302,168 596,366 872,622 519,481 938,1011 1245,1601 44,88 -29,147 -80,63 -150,-289 -274,-517 -481,-793 -206,-275 -457,-525 -710,-760 -532,-493 -1392,-973 -2061,-1100z"/>
   <path class="fil0" d="M5212 9807c-38,-5 -64,-40 -59,-78 5,-38 38,-49 76,-44 369,50 749,-2 1187,-90 349,-96 764,-258 1082,-522 277,-229 477,-456 690,-794 214,-338 410,-782 495,-1298 6,-38 8,-77 46,-71 38,7 30,56 23,94 -88,536 -210,895 -433,1248 -223,353 -501,700 -787,937 -335,278 -709,405 -1076,506 -426,117 -858,164 -1244,112z"/>
   <path class="fil0" d="M9572 6482c13,205 37,298 27,459 -20,329 -112,687 -217,1014 -73,228 -139,434 -249,629 -157,280 -351,558 -604,775 -170,146 -304,303 -492,434 -31,22 -74,15 -96,-17 -22,-31 0,-69 31,-91 444,-302 799,-668 1055,-1125 103,-218 182,-428 256,-635 97,-272 176,-541 195,-845 9,-152 -5,-391 -16,-582 -23,-102 102,-115 110,-16z"/>
   <path class="fil0" d="M7197 2292c-30,-23 -56,-60 -33,-90 24,-30 67,-15 98,9 746,573 1008,900 1468,1633 31,51 81,147 114,201 50,81 -38,132 -85,41 -164,-264 -246,-475 -432,-713 -209,-268 -440,-524 -703,-753 -134,-117 -285,-218 -427,-328z"/>
   <path class="fil0" d="M1413 5413c-9,10 -193,97 -227,127 -48,43 -69,110 -86,174 108,-106 241,-181 379,-226 124,-40 203,45 92,196 -33,45 -42,140 20,150 18,3 29,-5 49,-15 294,-146 474,-212 790,-334 43,-84 172,-268 251,-275 28,-2 79,36 79,67 0,8 -13,21 -39,40 -95,79 -239,306 -224,306 19,21 625,-380 675,-375 32,3 77,38 84,84 8,48 -75,302 -99,348 -3,7 -6,14 -8,20 165,-31 598,-112 826,-160 0,0 375,-481 448,-467 18,3 48,26 48,51 0,13 -180,211 -191,225 -39,55 348,-263 479,-105 51,63 36,140 -46,231 -107,120 -278,187 -420,208l-26 6c9,7 196,-9 219,-11 330,-40 335,-72 744,-235 16,-6 40,-15 62,-25 49,-143 242,-337 385,-248 63,39 92,144 24,194 -123,92 -312,126 -334,139 -6,4 -65,184 119,181 58,-2 115,-10 172,-24 200,-50 408,-138 616,-231 7,-10 14,-20 20,-31 97,-142 192,-237 298,-359 146,-169 380,-444 566,-431 94,6 136,79 120,161 -10,50 -83,156 -138,218 -145,165 -370,308 -565,414 -95,52 -188,76 -258,163 -35,44 -52,134 -35,165 81,152 157,66 242,38l173 -69 501 -194c0,0 91,-191 216,-274 42,-28 76,-22 109,18 28,35 6,45 -25,70 -96,79 -240,306 -224,306 18,21 625,-380 675,-376 32,4 77,39 84,85 7,48 -76,302 -100,348 -3,7 -6,14 -7,20 22,0 647,-248 660,-262 13,-27 24,-52 36,-75 138,-276 354,-563 622,-689 254,-120 438,77 108,378 -143,130 -440,320 -638,431 -45,25 -44,11 -64,57 -8,20 -65,149 -33,108 10,-12 154,-114 189,-139 90,-60 315,-179 394,-155 51,16 109,87 -49,156 -78,34 -159,54 -249,70l-91 34c88,91 44,189 51,226 15,89 177,70 238,48 114,-41 180,-84 286,-135 274,-133 364,-160 650,-250l264 -79c94,-38 101,58 94,67 -14,19 -302,104 -336,115 -226,68 -426,159 -641,262 -110,53 -352,152 -476,146 -89,-5 -170,-110 -158,-220 4,-42 14,-82 0,-120 -10,-25 -30,-32 -33,-31 -34,24 -71,56 -110,94 -63,61 -76,82 -117,140 -21,-4 -64,-7 -74,-43 -7,-25 64,-216 82,-262 -361,165 -618,249 -677,268l-84 157c-118,210 -251,456 -433,499 -121,29 -250,-72 -163,-257 94,-199 301,-333 491,-426 107,-53 88,-22 131,-117 20,-45 109,-255 109,-302 0,-20 -458,275 -550,306 -58,19 -102,36 -150,-6 -24,-22 -37,-48 -38,-78 -112,32 -254,83 -358,138 -117,61 -323,172 -452,157 -132,-15 -236,-172 -185,-317 -204,89 -409,179 -597,195 -165,13 -305,-58 -303,-259 -284,92 -367,194 -744,241 -137,18 -370,22 -495,-54l-28 -18c-119,107 -355,500 -443,571 -42,34 -84,-26 -86,-43 -5,-60 314,-441 387,-542 -176,36 -650,111 -785,154l-84 157c-118,210 -251,456 -433,499 -121,29 -250,-72 -163,-257 94,-199 300,-333 490,-426 107,-53 88,-23 131,-117 21,-45 110,-255 110,-302 0,-20 -458,275 -550,306 -58,19 -102,36 -151,-6 -24,-22 -37,-49 -38,-81 -206,63 -222,85 -422,172 -104,46 -427,226 -512,60 -49,-96 41,-204 69,-291 -407,160 -465,405 -565,343 -30,-19 -31,-48 -18,-80 26,-74 65,-167 96,-239 -114,45 -173,87 -275,108 -58,13 -134,22 -233,11 -42,47 -61,76 -115,108 -147,87 -198,-31 -181,-78 9,-24 74,-68 110,-85 51,-23 88,-31 140,-37 11,-25 50,-113 43,-134 -9,-31 -220,44 -244,54 -58,25 -160,72 -191,72 -49,0 -92,-53 -92,-106 0,-128 263,-385 377,-385 48,0 95,82 43,85 -59,5 -212,136 -254,192 -5,5 -79,108 -69,108 0,13 296,-137 416,-95 71,23 103,117 68,195l-8 26c51,5 133,2 213,-22 116,-37 235,-104 305,-132 0,0 276,-600 670,-838 239,-145 480,119 184,410 -183,180 -321,261 -532,378zm-978 274c-47,8 -86,24 -115,47 -9,8 -11,21 -4,30 6,9 19,12 29,7 32,-17 62,-45 90,-84zm7198 362c98,-201 92,-172 -3,-117 -102,59 -153,92 -242,177 -69,66 -202,227 -155,314 17,31 29,33 61,26 104,-23 217,-156 339,-400zm1101 -679l258 -151c162,-107 443,-306 476,-491l-31 0c-220,0 -574,391 -703,642zm-1670 -648c-176,92 -405,394 -551,576 102,-56 322,-198 416,-268 130,-101 221,-197 272,-288 64,-113 -101,-41 -137,-20zm-1619 639c65,-23 105,-38 166,-74 117,-68 3,-51 -54,-20 -65,37 -73,59 -112,94zm-1341 248c-4,5 396,-6 586,-278 34,-49 29,-53 -9,-51 -155,6 -456,219 -577,329zm-1248 439c98,-201 92,-172 -2,-117 -103,59 -153,92 -242,177 -69,66 -203,227 -155,314 16,31 28,33 61,26 103,-23 216,-156 338,-400zm-1601 -668c-16,18 145,-80 181,-103 164,-106 545,-344 563,-545 3,-31 7,-51 -56,-51 -212,0 -485,361 -599,552l-89 147z"/>
  </g>
 </g>
</svg>
